<svg width="196" height="196" viewBox="0 0 196 196" fill="none" xmlns="http://www.w3.org/2000/svg">
<rect width="196" height="196" rx="72" fill="url(#paint0_linear_157_26)"/>
<path d="M27.3807 95.4545V53.4545H35.733V58.5852H36.1108C36.482 57.7633 37.0189 56.928 37.7216 56.0795C38.4375 55.2178 39.3655 54.5019 40.5057 53.9318C41.6591 53.3485 43.0909 53.0568 44.8011 53.0568C47.0284 53.0568 49.0833 53.6402 50.9659 54.8068C52.8485 55.9602 54.3532 57.7036 55.4801 60.0369C56.607 62.357 57.1705 65.267 57.1705 68.767C57.1705 72.1742 56.6203 75.0511 55.5199 77.3977C54.4328 79.7311 52.9479 81.5009 51.0653 82.7074C49.196 83.9006 47.1013 84.4972 44.7812 84.4972C43.1373 84.4972 41.7386 84.2254 40.5852 83.6818C39.4451 83.1383 38.5104 82.4555 37.7812 81.6335C37.0521 80.7983 36.4953 79.9564 36.1108 79.108H35.8523V95.4545H27.3807ZM35.6733 68.7273C35.6733 70.5436 35.9252 72.1278 36.429 73.4801C36.9328 74.8324 37.6619 75.8864 38.6165 76.642C39.571 77.3845 40.7311 77.7557 42.0966 77.7557C43.4754 77.7557 44.642 77.3778 45.5966 76.6222C46.5511 75.8532 47.2737 74.7926 47.7642 73.4403C48.268 72.0748 48.5199 70.5038 48.5199 68.7273C48.5199 66.964 48.2746 65.4129 47.7841 64.0739C47.2936 62.7348 46.571 61.6875 45.6165 60.9318C44.6619 60.1761 43.4886 59.7983 42.0966 59.7983C40.7178 59.7983 39.5511 60.1629 38.5966 60.892C37.6553 61.6212 36.9328 62.6553 36.429 63.9943C35.9252 65.3333 35.6733 66.911 35.6733 68.7273ZM82.4062 70.9943V53.4545H90.8778V84H82.7443V78.4517H82.4261C81.7367 80.2415 80.59 81.6799 78.9858 82.767C77.3949 83.8542 75.4527 84.3977 73.1591 84.3977C71.1174 84.3977 69.321 83.9337 67.7699 83.0057C66.2188 82.0777 65.0057 80.7585 64.1307 79.0483C63.2689 77.3381 62.8314 75.2898 62.8182 72.9034V53.4545H71.2898V71.392C71.303 73.1951 71.7869 74.6203 72.7415 75.6676C73.696 76.715 74.9754 77.2386 76.5795 77.2386C77.6004 77.2386 78.5549 77.0066 79.4432 76.5426C80.3314 76.0653 81.0473 75.3627 81.5909 74.4347C82.1477 73.5066 82.4195 72.3598 82.4062 70.9943ZM113.901 53.4545V59.8182H95.5064V53.4545H113.901ZM99.6825 46.1364H108.154V74.6136C108.154 75.3958 108.273 76.0057 108.512 76.4432C108.751 76.8674 109.082 77.1657 109.506 77.3381C109.944 77.5104 110.448 77.5966 111.018 77.5966C111.415 77.5966 111.813 77.5634 112.211 77.4972C112.609 77.4176 112.914 77.358 113.126 77.3182L114.458 83.6222C114.034 83.7547 113.437 83.9072 112.668 84.0795C111.899 84.2652 110.965 84.3778 109.864 84.4176C107.823 84.4972 106.033 84.2254 104.495 83.6023C102.97 82.9792 101.784 82.0114 100.935 80.6989C100.087 79.3864 99.6693 77.7292 99.6825 75.7273V46.1364ZM119.42 84V53.4545H127.633V58.7841H127.951C128.508 56.8883 129.442 55.4564 130.755 54.4886C132.067 53.5076 133.579 53.017 135.289 53.017C135.713 53.017 136.171 53.0436 136.661 53.0966C137.152 53.1496 137.583 53.2225 137.954 53.3153V60.8324C137.556 60.7131 137.006 60.607 136.303 60.5142C135.601 60.4214 134.958 60.375 134.374 60.375C133.128 60.375 132.014 60.6468 131.033 61.1903C130.066 61.7206 129.297 62.4631 128.727 63.4176C128.17 64.3722 127.891 65.4725 127.891 66.7188V84H119.42ZM154.713 84.5966C151.624 84.5966 148.953 83.9403 146.699 82.6278C144.458 81.3021 142.728 79.4593 141.509 77.0994C140.289 74.7263 139.679 71.9754 139.679 68.8466C139.679 65.6913 140.289 62.9337 141.509 60.5739C142.728 58.2008 144.458 56.358 146.699 55.0455C148.953 53.7197 151.624 53.0568 154.713 53.0568C157.802 53.0568 160.467 53.7197 162.707 55.0455C164.961 56.358 166.698 58.2008 167.918 60.5739C169.137 62.9337 169.747 65.6913 169.747 68.8466C169.747 71.9754 169.137 74.7263 167.918 77.0994C166.698 79.4593 164.961 81.3021 162.707 82.6278C160.467 83.9403 157.802 84.5966 154.713 84.5966ZM154.753 78.0341C156.158 78.0341 157.331 77.6364 158.273 76.8409C159.214 76.0322 159.923 74.9318 160.401 73.5398C160.891 72.1477 161.136 70.5634 161.136 68.7869C161.136 67.0104 160.891 65.4261 160.401 64.0341C159.923 62.642 159.214 61.5417 158.273 60.733C157.331 59.9242 156.158 59.5199 154.753 59.5199C153.334 59.5199 152.141 59.9242 151.173 60.733C150.219 61.5417 149.496 62.642 149.006 64.0341C148.528 65.4261 148.29 67.0104 148.29 68.7869C148.29 70.5634 148.528 72.1477 149.006 73.5398C149.496 74.9318 150.219 76.0322 151.173 76.8409C152.141 77.6364 153.334 78.0341 154.753 78.0341ZM35.8523 134.341V152H27.3807V121.455H35.4545V126.844H35.8125C36.4886 125.067 37.6222 123.662 39.2131 122.628C40.804 121.58 42.733 121.057 45 121.057C47.1212 121.057 48.9706 121.521 50.5483 122.449C52.1259 123.377 53.3523 124.703 54.2273 126.426C55.1023 128.136 55.5398 130.178 55.5398 132.551V152H47.0682V134.062C47.0814 132.193 46.6042 130.735 45.6364 129.688C44.6686 128.627 43.3362 128.097 41.6392 128.097C40.4991 128.097 39.4915 128.342 38.6165 128.832C37.7547 129.323 37.0786 130.039 36.5881 130.98C36.1108 131.908 35.8655 133.028 35.8523 134.341ZM62.2166 152V121.455H70.6882V152H62.2166ZM66.4723 117.517C65.2128 117.517 64.1323 117.099 63.2308 116.264C62.3426 115.416 61.8984 114.402 61.8984 113.222C61.8984 112.055 62.3426 111.054 63.2308 110.219C64.1323 109.37 65.2128 108.946 66.4723 108.946C67.7318 108.946 68.8056 109.37 69.6939 110.219C70.5954 111.054 71.0462 112.055 71.0462 113.222C71.0462 114.402 70.5954 115.416 69.6939 116.264C68.8056 117.099 67.7318 117.517 66.4723 117.517ZM86.1847 152.577C84.2358 152.577 82.4991 152.239 80.9744 151.562C79.4498 150.873 78.2434 149.859 77.3551 148.52C76.4801 147.168 76.0426 145.484 76.0426 143.469C76.0426 141.772 76.3542 140.347 76.9773 139.193C77.6004 138.04 78.4489 137.112 79.5227 136.409C80.5966 135.706 81.8163 135.176 83.1818 134.818C84.5606 134.46 86.0057 134.208 87.517 134.062C89.2936 133.877 90.7254 133.705 91.8125 133.545C92.8996 133.373 93.6884 133.121 94.179 132.79C94.6695 132.458 94.9148 131.968 94.9148 131.318V131.199C94.9148 129.939 94.517 128.965 93.7216 128.276C92.9394 127.586 91.8258 127.241 90.3807 127.241C88.8561 127.241 87.643 127.58 86.7415 128.256C85.84 128.919 85.2434 129.754 84.9517 130.761L77.1165 130.125C77.5142 128.269 78.2964 126.665 79.4631 125.312C80.6297 123.947 82.1345 122.9 83.9773 122.17C85.8333 121.428 87.9811 121.057 90.4205 121.057C92.1174 121.057 93.7415 121.256 95.2926 121.653C96.857 122.051 98.2424 122.668 99.4489 123.503C100.669 124.338 101.63 125.412 102.332 126.724C103.035 128.024 103.386 129.581 103.386 131.398V152H95.3523V147.764H95.1136C94.6231 148.719 93.9669 149.561 93.1449 150.29C92.3229 151.006 91.3352 151.569 90.1818 151.98C89.0284 152.378 87.696 152.577 86.1847 152.577ZM88.6108 146.73C89.857 146.73 90.9574 146.485 91.9119 145.994C92.8665 145.491 93.6155 144.814 94.1591 143.966C94.7027 143.117 94.9744 142.156 94.9744 141.082V137.841C94.7093 138.013 94.3447 138.172 93.8807 138.318C93.4299 138.451 92.9195 138.577 92.3494 138.696C91.7794 138.802 91.2093 138.902 90.6392 138.994C90.0691 139.074 89.5521 139.147 89.0881 139.213C88.0938 139.359 87.2254 139.591 86.483 139.909C85.7405 140.227 85.1638 140.658 84.7528 141.202C84.3419 141.732 84.1364 142.395 84.1364 143.19C84.1364 144.344 84.554 145.225 85.3892 145.835C86.2377 146.432 87.3116 146.73 88.6108 146.73Z" fill="white"/>
<defs>
<linearGradient id="paint0_linear_157_26" x1="57.5" y1="168" x2="168" y2="-8.77998e-06" gradientUnits="userSpaceOnUse">
<stop stop-color="#0A3A5D"/>
<stop offset="1" stop-color="#296FA1"/>
</linearGradient>
</defs>
</svg>
